<?xml version="1.0" standalone="no"?>
<!DOCTYPE svg PUBLIC "-//W3C//DTD SVG 20010904//EN"
 "http://www.w3.org/TR/2001/REC-SVG-20010904/DTD/svg10.dtd">
<svg version="1.0" xmlns="http://www.w3.org/2000/svg"
 width="881.000000pt" height="881.000000pt" viewBox="0 0 881.000000 881.000000"
 preserveAspectRatio="xMidYMid meet">
<metadata>
Created by potrace 1.11, written by Peter Selinger 2001-2013
</metadata>
<g transform="translate(0.000000,881.000000) scale(0.100000,-0.100000)"
fill="#000000" stroke="none">
<path d="M4270 7026 c0 -2 8 -10 18 -17 15 -13 16 -12 3 4 -13 16 -21 21 -21
13z"/>
<path d="M4073 6975 c0 -8 4 -12 9 -9 5 3 6 10 3 15 -9 13 -12 11 -12 -6z"/>
<path d="M4253 6930 c-4 -4 -46 -11 -92 -14 -46 -4 -94 -9 -105 -11 -12 -3
-37 -7 -56 -9 -19 -2 -42 -6 -50 -9 -8 -3 -33 -9 -55 -13 -22 -4 -44 -8 -50
-10 -47 -11 -71 -12 -84 -1 -14 10 -14 10 -3 -4 11 -15 8 -18 -20 -23 -18 -4
-43 -8 -55 -9 -13 -1 -23 -6 -23 -11 0 -4 -9 -6 -20 -3 -13 3 -18 1 -13 -6 4
-6 0 -8 -10 -4 -10 4 -17 1 -17 -5 0 -6 -3 -8 -6 -5 -4 4 -19 0 -33 -8 -40
-21 -92 -36 -104 -28 -5 3 -7 1 -4 -4 6 -10 -32 -30 -72 -39 -7 -1 -18 -7 -24
-13 -15 -15 -40 -14 -31 1 5 7 3 8 -5 4 -7 -5 -10 -11 -7 -14 13 -12 -40 -35
-88 -38 -28 -1 -53 -3 -56 -4 -3 -1 -9 -2 -13 -1 -8 1 -92 -13 -154 -26 -16
-3 -40 -6 -55 -7 -14 0 -24 -4 -21 -8 2 -5 -3 -8 -11 -8 -24 0 -23 0 -60 -15
-18 -8 -36 -11 -40 -8 -3 4 -6 2 -6 -3 0 -14 -67 -37 -81 -28 -7 4 -9 3 -6 -3
9 -14 -48 -37 -64 -27 -8 4 -10 3 -5 -4 6 -11 -6 -16 -26 -13 -5 0 -8 -4 -8
-10 0 -5 -4 -7 -10 -4 -5 3 -10 1 -10 -5 0 -7 -7 -10 -15 -6 -8 3 -15 2 -15
-3 0 -9 -94 -54 -115 -54 -8 0 -15 -4 -15 -9 0 -4 -7 -8 -15 -8 -8 0 -15 -4
-15 -10 0 -5 -7 -10 -15 -10 -8 0 -15 -3 -15 -8 0 -4 -9 -13 -21 -20 -17 -11
-20 -11 -14 0 3 7 -1 4 -10 -7 -14 -17 -17 -18 -26 -5 -9 13 -10 12 -6 -2 4
-11 -11 -30 -50 -62 -30 -25 -59 -43 -64 -40 -5 3 -6 -2 -3 -10 4 -9 -1 -18
-10 -22 -9 -3 -16 -11 -16 -18 0 -6 -10 -22 -21 -36 -11 -14 -17 -19 -13 -11
5 10 3 12 -5 7 -7 -5 -10 -14 -7 -22 3 -8 -1 -17 -9 -20 -8 -4 -15 -12 -15
-18 0 -7 -9 -31 -20 -54 -11 -22 -20 -46 -20 -52 0 -5 -5 -10 -10 -10 -7 0 -7
-6 -1 -19 6 -10 7 -21 4 -25 -9 -9 -15 -35 -15 -68 0 -18 -7 -29 -19 -33 -11
-4 -19 -11 -19 -16 0 -11 22 -7 33 6 4 6 5 -9 3 -33 -3 -23 -1 -40 4 -37 5 3
12 0 16 -6 4 -8 3 -9 -4 -5 -7 4 -12 2 -12 -3 0 -6 5 -11 11 -11 5 0 7 -4 4
-10 -3 -5 -1 -10 6 -10 7 0 4 -7 -7 -16 -15 -12 -16 -15 -2 -10 12 3 16 -1 15
-15 -1 -10 -7 -19 -15 -19 -7 0 -11 4 -8 9 3 5 -2 15 -11 22 -15 12 -16 12 -9
-6 13 -30 15 -85 3 -78 -6 3 -7 1 -3 -6 6 -9 11 -9 22 0 8 6 14 8 14 3 0 -15
-14 -29 -31 -30 -12 -1 -15 7 -13 37 2 28 -1 37 -9 33 -8 -5 -8 -2 1 7 15 16
16 33 2 24 -13 -8 -9 17 4 27 5 3 10 18 12 31 2 19 -1 24 -12 20 -8 -3 -14 0
-14 7 0 6 5 8 10 5 6 -3 10 -1 10 4 0 10 -13 15 -31 13 -3 -1 -6 6 -6 13 0 11
4 12 14 4 7 -6 13 -8 13 -3 0 5 5 2 10 -6 5 -8 10 -10 10 -5 0 13 -16 37 -24
36 -18 -3 -22 1 -22 23 0 14 4 22 8 20 4 -3 8 -1 8 4 0 6 -7 13 -16 16 -15 6
-15 8 2 28 15 17 16 20 3 16 -24 -9 -19 28 6 46 20 15 20 15 -1 12 -13 -3 -21
1 -21 9 0 8 4 12 8 9 4 -2 10 0 14 6 3 5 1 10 -4 10 -9 0 -9 37 0 48 1 1 2 12
3 24 1 23 20 35 31 18 3 -5 -1 -13 -9 -16 -14 -5 -14 -8 -1 -21 21 -21 19 -36
-3 -24 -14 7 -19 6 -19 -4 0 -7 7 -11 16 -8 14 4 14 4 1 -6 -13 -9 -13 -11 0
-11 13 0 13 -1 0 -10 -8 -5 -10 -10 -4 -10 7 0 15 -7 18 -16 4 -10 2 -13 -6
-8 -7 4 -8 3 -4 -4 12 -20 28 -13 21 8 -4 13 -2 20 6 20 7 0 9 3 6 6 -3 4 -2
16 4 27 8 14 8 18 0 13 -6 -4 -11 -2 -11 3 0 6 7 11 15 11 8 0 19 10 25 23 10
20 10 20 -3 5 -8 -10 -20 -18 -28 -18 -11 0 -11 2 1 11 11 8 9 9 -10 4 -20 -6
-23 -5 -13 5 9 10 8 19 -5 38 -13 19 -13 24 -3 17 11 -6 13 -4 8 7 -3 9 8 37
27 64 26 41 36 49 59 47 15 -1 27 2 27 7 0 5 -9 7 -20 5 -24 -5 -25 1 -5 21 8
9 20 12 26 8 8 -5 9 -3 4 5 -4 7 1 20 14 32 21 20 36 26 26 10 -3 -5 -1 -12 4
-16 6 -3 8 6 5 21 -4 21 -2 25 11 20 10 -3 14 -2 10 5 -8 12 26 40 39 32 5 -4
6 -1 3 4 -11 18 203 179 219 165 4 -4 4 -1 0 6 -6 9 -11 10 -20 3 -7 -6 -16
-8 -19 -4 -4 3 -7 1 -7 -5 0 -7 -9 -12 -19 -12 -11 0 -21 -3 -23 -8 -1 -4 -27
-23 -56 -41 -30 -19 -60 -41 -68 -48 -8 -8 -19 -11 -25 -7 -8 4 -9 3 -5 -5 4
-6 -6 -22 -26 -38 -64 -52 -174 -169 -257 -273 -47 -58 -89 -104 -94 -102 -4
1 -6 -2 -2 -8 3 -5 1 -10 -4 -10 -6 0 -10 -4 -9 -8 4 -10 -44 -82 -54 -82 -5
0 -8 -7 -8 -15 0 -9 -12 -27 -27 -41 -19 -18 -21 -23 -8 -18 17 7 17 5 -3 -23
-12 -17 -22 -36 -22 -43 0 -7 -7 -10 -15 -6 -12 4 -13 2 -2 -15 10 -17 9 -22
-3 -32 -8 -7 -16 -28 -18 -47 -2 -19 -7 -39 -12 -44 -5 -5 -6 -15 -3 -24 5
-11 3 -13 -7 -7 -10 6 -11 4 -4 -6 11 -18 14 -39 5 -39 -4 0 -5 -16 -3 -36 4
-29 2 -35 -9 -29 -8 5 -11 5 -7 0 4 -4 2 -15 -5 -24 -11 -14 -10 -14 6 -2 20
15 23 2 5 -18 -10 -11 -10 -13 0 -7 8 5 12 0 12 -13 0 -10 -6 -22 -12 -24 -8
-4 -7 -6 4 -6 12 -1 16 -8 13 -31 -2 -16 -1 -30 3 -30 4 0 9 -8 10 -17 3 -33
8 -48 22 -73 8 -14 15 -28 16 -32 1 -5 3 -11 4 -15 4 -11 8 -26 9 -40 1 -7 8
-10 19 -6 15 5 14 4 -2 -9 -10 -8 -16 -20 -12 -26 3 -6 1 -14 -6 -18 -7 -4
-10 -3 -5 1 4 5 0 19 -9 33 -9 13 -11 21 -5 18 6 -4 11 -3 11 3 0 19 -19 21
-29 4 -6 -10 -11 -13 -11 -6 0 6 5 15 10 18 6 4 7 11 4 17 -4 7 -9 6 -14 -2
-11 -18 -30 -3 -23 18 3 9 3 14 -2 10 -9 -9 -34 20 -35 40 0 7 5 10 10 7 6 -4
8 -10 6 -14 -3 -3 4 -7 15 -7 10 0 19 4 19 8 0 4 -8 8 -17 8 -15 0 -14 2 3 15
19 15 19 15 -1 8 -11 -3 -17 -2 -12 2 4 5 0 17 -10 27 -20 22 -1 24 21 2 9 -8
16 -11 16 -5 0 14 -38 34 -50 26 -5 -3 -13 2 -18 11 -6 11 -11 13 -16 5 -4 -6
-11 -11 -16 -11 -15 0 -41 59 -45 104 -3 22 -7 53 -10 68 -4 23 -2 27 12 22
17 -5 17 -5 1 5 -10 7 -15 20 -13 33 3 12 6 37 7 56 1 18 6 36 10 38 5 3 6 10
3 15 -4 5 -3 14 1 20 3 6 7 29 8 51 4 72 -21 16 -41 -93 -9 -54 -20 -93 -24
-88 -3 6 -4 -13 -1 -42 4 -43 2 -50 -9 -44 -11 7 -12 6 -2 -7 7 -8 10 -18 7
-21 -4 -4 -7 -44 -8 -89 -1 -46 -5 -89 -10 -96 -4 -7 -2 -12 6 -12 10 0 10 -2
-1 -9 -10 -6 -10 -10 -1 -16 8 -5 6 -13 -7 -28 -10 -11 -12 -17 -5 -13 9 6 12
-22 14 -121 0 -70 3 -141 5 -158 2 -16 4 -40 5 -52 1 -13 6 -23 12 -23 6 0 5
-5 -2 -12 -7 -7 -12 -17 -12 -22 0 -6 4 -5 9 3 6 10 11 5 16 -19 4 -18 15 -51
25 -73 10 -23 16 -45 14 -49 -3 -4 -1 -8 5 -8 6 0 8 -8 4 -17 -3 -10 -2 -15 2
-11 8 8 55 -53 55 -71 0 -6 5 -11 10 -11 6 0 10 -6 10 -14 0 -7 9 -16 20 -19
12 -3 20 -14 20 -25 0 -11 7 -22 15 -25 8 -4 12 -15 10 -26 -2 -11 1 -24 7
-27 6 -4 8 -3 4 4 -3 5 0 13 6 15 10 4 9 6 -1 6 -11 1 -11 4 -1 16 15 18 52 2
44 -19 -3 -8 0 -17 6 -21 6 -4 9 -1 8 7 -2 7 4 13 12 13 12 0 15 -14 16 -62 1
-35 3 -64 4 -65 9 -14 8 -54 -2 -66 -8 -10 -9 -13 -2 -9 21 12 27 -26 7 -42
-15 -11 -15 -13 -1 -8 22 8 30 -3 15 -21 -6 -9 -7 -13 -1 -10 6 4 14 -9 21
-32 5 -22 6 -37 2 -34 -5 3 -9 0 -9 -5 0 -6 4 -11 9 -11 14 0 20 -37 7 -50 -8
-8 -7 -10 7 -5 18 7 21 -2 19 -53 -1 -12 3 -20 8 -17 10 6 14 -7 11 -32 -1 -7
2 -13 7 -13 20 0 23 -34 5 -49 -16 -12 -16 -13 -1 -8 20 7 38 -19 30 -42 -2
-8 0 -11 6 -7 5 3 13 -1 16 -10 4 -10 2 -13 -7 -8 -6 4 -2 -3 11 -15 12 -12
20 -26 17 -32 -4 -5 -1 -9 4 -9 6 0 11 -9 11 -20 0 -11 5 -20 10 -20 6 0 10
-11 10 -24 0 -14 5 -28 11 -32 6 -3 9 -17 6 -30 -2 -13 0 -22 6 -21 5 1 12 -4
14 -11 3 -8 -2 -10 -14 -6 -11 4 -14 3 -7 -3 6 -4 10 -15 9 -24 -2 -10 4 -16
13 -15 8 0 21 -14 29 -32 7 -19 10 -31 5 -28 -5 3 -9 -1 -9 -9 0 -8 3 -13 6
-12 3 1 7 -2 8 -6 1 -4 9 -15 18 -23 8 -9 13 -20 10 -25 -4 -5 -1 -9 5 -9 6 0
9 -4 5 -9 -3 -5 0 -13 6 -16 5 -4 8 -14 5 -22 -3 -8 -2 -12 2 -9 4 2 28 -35
52 -82 25 -48 48 -90 53 -93 4 -3 9 -15 10 -27 0 -11 5 -19 9 -16 10 6 40 -54
33 -66 -3 -6 1 -7 9 -4 9 4 16 1 16 -6 0 -6 9 -23 20 -37 11 -14 17 -30 13
-36 -3 -5 -1 -7 4 -4 11 7 59 -61 55 -76 -2 -5 2 -6 7 -3 5 3 19 -10 32 -29
13 -19 28 -35 33 -35 5 0 3 -6 -3 -14 -9 -11 -9 -16 0 -22 8 -4 9 -3 5 4 -4 7
-3 12 2 12 14 0 33 -26 25 -33 -3 -4 2 -7 11 -7 12 0 16 -5 12 -16 -3 -8 -2
-13 2 -10 4 2 47 -35 94 -83 48 -48 103 -100 123 -116 29 -21 34 -30 24 -37
-11 -7 -10 -8 3 -6 21 4 99 -53 93 -69 -2 -7 2 -10 10 -7 7 3 23 -4 34 -15 12
-12 25 -21 31 -21 6 0 10 -4 10 -9 0 -5 8 -12 19 -16 10 -3 31 -17 45 -30 14
-13 26 -22 26 -19 0 4 50 -25 60 -36 3 -3 17 -11 32 -19 15 -8 25 -19 21 -24
-3 -6 -1 -7 5 -3 14 9 55 -12 47 -24 -3 -4 5 -6 17 -2 14 3 19 1 14 -6 -5 -8
-2 -10 8 -6 10 4 16 1 16 -7 0 -7 3 -9 6 -6 8 8 46 -12 40 -21 -2 -4 7 -8 21
-9 14 0 29 -6 33 -13 4 -6 10 -11 14 -11 20 3 26 0 20 -11 -4 -7 -3 -8 4 -4 6
4 25 0 42 -9 16 -8 32 -15 35 -14 3 0 36 -11 73 -25 82 -32 230 -76 255 -76
10 0 16 -4 13 -9 -3 -4 6 -6 19 -3 15 2 25 0 25 -7 0 -7 -5 -9 -12 -5 -7 4 -8
3 -4 -5 6 -9 11 -9 21 -1 9 7 23 9 37 4 13 -4 32 -9 43 -10 60 -7 100 -13 100
-14 0 -1 23 -4 50 -6 28 -3 57 -7 65 -11 8 -3 37 -5 64 -3 32 1 52 -3 57 -12
5 -7 9 -8 9 -3 0 11 61 12 78 1 7 -4 12 -4 12 1 0 4 51 9 113 10 111 1 209 8
257 18 50 10 126 19 162 19 20 1 34 4 31 9 -2 4 2 7 9 8 16 1 28 3 108 24 36
10 70 18 75 20 6 1 23 7 38 13 15 7 31 11 35 10 4 -1 18 4 30 11 13 7 26 10
29 7 3 -3 12 2 20 10 9 8 22 13 29 10 8 -3 14 -2 14 2 0 5 16 14 35 21 20 7
66 26 103 43 37 17 68 29 68 27 1 -2 11 5 23 15 12 11 21 15 21 10 0 -5 4 -4
8 1 4 6 21 17 37 25 17 8 33 19 36 23 3 4 15 9 27 10 11 0 19 4 17 8 -3 3 8
12 23 20 27 14 82 49 92 59 3 3 25 18 50 34 25 17 60 43 78 60 17 16 32 26 32
22 0 -5 10 2 23 15 30 31 97 89 97 83 0 -2 19 17 41 41 23 25 46 42 52 38 5
-3 7 -2 4 4 -6 10 81 100 94 96 3 -1 6 5 5 15 0 10 5 16 14 14 8 -2 12 -1 8 3
-3 4 25 45 63 92 38 46 69 89 69 95 0 5 7 7 16 4 8 -3 12 -2 9 4 -6 10 29 68
50 82 6 5 6 8 0 8 -5 0 -3 6 5 13 8 7 26 34 40 60 14 27 35 59 46 72 12 13 20
26 17 28 -5 6 58 129 70 138 5 3 8 9 7 13 -4 13 22 66 30 61 5 -3 12 0 16 6 4
8 3 9 -4 5 -17 -11 -15 1 16 82 16 39 32 69 36 65 4 -4 4 0 1 9 -3 8 1 33 11
54 9 22 17 42 16 45 -1 4 3 22 9 40 6 19 12 41 14 49 25 102 38 158 40 170 1
8 6 40 10 70 5 30 8 61 6 69 -2 9 3 12 15 7 13 -5 14 -4 6 7 -11 12 -13 97 -2
97 3 0 5 44 5 98 0 53 5 100 10 104 7 5 7 8 0 8 -6 0 -10 45 -10 116 0 64 -4
118 -8 121 -4 3 -3 11 4 19 9 11 9 14 -1 14 -8 0 -11 9 -8 25 3 14 2 25 -1 25
-3 0 -6 10 -7 23 0 12 -4 42 -8 67 -4 25 -9 56 -11 70 -4 24 -8 39 -20 93 -4
12 -8 37 -11 56 -2 19 -9 40 -14 46 -6 7 -5 16 3 25 9 10 9 11 0 6 -8 -5 -14
0 -15 11 -2 28 -4 36 -17 68 -31 75 -50 139 -44 148 3 6 1 7 -4 4 -6 -4 -14 5
-18 20 -6 26 -134 293 -145 303 -8 8 -70 111 -70 116 0 3 -7 12 -15 21 -10 9
-13 24 -10 37 5 16 4 18 -4 6 -8 -12 -11 -12 -17 4 -4 10 -20 32 -35 49 -16
17 -27 33 -25 35 3 2 -13 22 -35 45 -38 41 -51 65 -26 51 7 -4 9 -3 4 2 -5 5
-12 9 -17 9 -4 0 -20 14 -35 30 -61 67 -125 133 -179 183 -31 29 -53 58 -50
64 4 6 2 8 -3 5 -13 -8 -145 98 -135 108 4 5 2 5 -5 1 -6 -3 -23 5 -36 18 -14
14 -28 22 -31 19 -3 -4 -6 -2 -6 3 0 5 -16 18 -35 28 -19 10 -33 22 -30 26 2
4 -1 7 -8 7 -7 0 -48 22 -92 49 -44 27 -110 65 -147 84 -37 19 -64 38 -61 44
3 5 1 6 -6 2 -13 -8 -91 23 -91 37 0 4 -5 5 -10 2 -6 -4 -24 1 -42 9 -17 9
-37 16 -45 16 -7 0 -13 4 -13 10 0 5 -3 9 -7 8 -16 -3 -123 34 -119 41 3 4 -8
5 -25 3 -19 -3 -29 0 -29 9 0 7 -3 10 -6 7 -3 -3 -29 0 -57 8 -29 7 -65 16
-82 19 -77 17 -123 26 -155 30 -19 3 -46 8 -60 12 -26 6 -95 11 -236 17 -45 2
-86 6 -92 10 -6 3 -13 2 -17 -4 -4 -7 -12 -7 -26 0 -10 6 -19 7 -19 2 0 -5
-15 -7 -32 -6 -18 1 -33 3 -33 4 0 6 -35 6 -42 0z m-1147 -319 c-3 -5 1 -12
10 -15 8 -3 12 -10 9 -16 -4 -6 -10 -8 -15 -5 -4 3 -10 2 -12 -2 -4 -10 -75
-63 -83 -63 -4 0 -25 -14 -46 -31 -22 -17 -46 -29 -54 -26 -9 4 -12 1 -9 -8 4
-8 -6 -20 -25 -30 -17 -8 -31 -21 -31 -27 0 -6 -3 -9 -6 -5 -3 3 -18 -5 -32
-18 -14 -13 -30 -21 -35 -18 -6 3 -7 1 -3 -5 9 -14 -28 -34 -48 -26 -12 5 -19
-3 -27 -25 -6 -17 -15 -29 -19 -26 -5 3 -11 1 -15 -5 -4 -6 -10 -8 -15 -5 -5
3 -11 -4 -15 -15 -6 -19 -17 -25 -39 -21 -5 1 -6 -6 -2 -16 5 -15 4 -15 -9 2
-9 11 -13 26 -10 33 3 10 0 12 -10 8 -8 -3 -15 -1 -15 4 0 9 24 14 33 8 2 -2
12 4 22 12 11 8 16 10 13 5 -4 -7 3 -11 18 -11 22 0 28 8 25 29 0 4 6 7 15 7
12 0 11 5 -7 20 -13 10 -19 19 -12 20 6 0 15 -4 18 -10 3 -5 11 -10 18 -10 6
0 2 7 -9 16 -15 12 -16 15 -2 10 21 -6 50 36 41 60 -4 11 1 22 12 30 10 8 13
14 7 14 -7 0 -15 0 -19 0 -8 0 -9 -4 -12 -35 -2 -27 -16 -15 -17 15 -1 20 3
30 12 30 8 0 17 6 20 14 7 17 79 57 88 49 3 -4 6 -1 6 6 0 8 6 11 16 7 8 -3
12 -2 9 4 -3 6 5 10 19 10 14 0 26 5 26 11 0 5 4 8 8 5 4 -2 14 -1 22 4 9 5
19 5 27 -2 8 -6 16 -8 20 -4 3 3 1 6 -5 6 -25 0 -11 16 16 18 21 2 110 23 130
31 2 0 1 -3 -2 -8z m65 -5 c-14 -8 -31 -12 -38 -9 -24 9 -13 19 25 21 36 2 37
2 13 -12z m-485 -188 c-1 -16 4 -23 17 -22 20 2 21 -5 4 -26 -11 -14 -28 -20
-70 -23 -18 -1 -18 -2 0 -15 10 -7 18 -21 19 -32 1 -20 -22 -35 -31 -20 -3 5
-12 7 -20 3 -9 -3 -15 1 -15 11 0 9 5 16 11 16 5 0 8 -4 5 -8 -2 -4 4 -8 14
-8 10 0 17 3 14 7 -2 4 -1 9 3 12 5 2 2 2 -5 0 -7 -1 -10 1 -7 6 3 5 1 12 -5
16 -5 3 -10 2 -10 -2 0 -5 -10 -9 -22 -10 l-23 -1 23 11 c13 6 21 16 18 24 -4
10 -1 11 11 5 17 -10 53 -5 53 8 0 4 -10 7 -22 6 -11 0 -23 6 -25 14 -4 13 -3
13 6 0 9 -12 17 -9 9 4 -4 6 34 46 42 46 4 0 7 -10 6 -22z m44 -118 c0 -5 -4
-10 -10 -10 -5 0 -10 5 -10 10 0 6 5 10 10 10 6 0 10 -4 10 -10z m-153 -16
c-3 -3 -12 -4 -19 -1 -8 3 -5 6 6 6 11 1 17 -2 13 -5z m-32 -65 c-4 -5 1 -9 9
-9 9 0 16 -5 16 -10 0 -17 -33 5 -36 24 -1 9 2 14 7 10 5 -3 7 -10 4 -15z
m-10 -49 c3 -6 -1 -7 -9 -4 -18 7 -21 14 -7 14 6 0 13 -4 16 -10z m28 -5 c-3
-9 -8 -14 -10 -11 -3 3 -2 9 2 15 9 16 15 13 8 -4z m-23 -20 c0 -1 -12 -2 -26
-2 -17 0 -22 2 -13 7 10 7 39 3 39 -5z m-28 -49 c7 4 8 2 4 -5 -9 -13 -26 -5
-25 12 0 9 2 8 6 -1 2 -6 10 -9 15 -6z m-42 -20 c0 -3 -4 -8 -10 -11 -5 -3
-10 -1 -10 4 0 6 5 11 10 11 6 0 10 -2 10 -4z m30 -20 c0 -2 -7 -6 -15 -10 -8
-3 -15 -1 -15 4 0 6 7 10 15 10 8 0 15 -2 15 -4z m-36 -25 c3 -5 -2 -15 -12
-22 -16 -13 -16 -13 -2 5 14 18 13 19 -2 13 -10 -3 -18 -2 -18 3 0 12 27 13
34 1z m-434 -21 c0 -5 -5 -10 -11 -10 -5 0 -7 5 -4 10 3 6 8 10 11 10 2 0 4
-4 4 -10z m390 -41 l-10 -24 2 25 c1 14 -1 32 -6 40 -7 12 -6 12 8 -1 13 -12
15 -21 6 -40z m-29 -36 c-12 -20 -14 -14 -5 12 4 9 9 14 11 11 3 -2 0 -13 -6
-23z m-26 -14 c-5 -16 -4 -19 5 -14 9 6 11 4 5 -4 -10 -18 -27 2 -19 22 9 25
17 21 9 -4z m-15 -49 c0 -5 -2 -10 -4 -10 -3 0 -8 5 -11 10 -3 6 -1 10 4 10 6
0 11 -4 11 -10z m-20 -20 c0 -5 -2 -10 -4 -10 -3 0 -8 5 -11 10 -3 6 -1 10 4
10 6 0 11 -4 11 -10z m-46 -26 c3 -8 2 -12 -4 -9 -6 3 -10 10 -10 16 0 14 7
11 14 -7z m31 6 c3 -5 2 -10 -4 -10 -5 0 -13 5 -16 10 -3 6 -2 10 4 10 5 0 13
-4 16 -10z m-30 -33 c17 3 17 2 -2 -7 -13 -5 -24 -16 -24 -25 -3 -30 -4 -34
-16 -46 -7 -7 -13 -18 -13 -25 0 -6 -8 -22 -19 -35 -10 -13 -19 -27 -20 -31
-6 -31 -79 -167 -88 -168 -7 0 -13 -5 -13 -11 0 -5 5 -7 11 -3 14 8 -21 -57
-36 -68 -7 -5 -7 -8 0 -8 6 0 2 -5 -8 -11 -9 -6 -14 -15 -11 -21 4 -7 2 -8 -4
-4 -8 5 -12 0 -12 -14 0 -11 -6 -23 -14 -26 -8 -3 -12 -12 -10 -19 3 -7 0 -16
-5 -20 -6 -3 -8 -11 -5 -17 4 -7 2 -8 -5 -4 -8 5 -10 0 -7 -18 3 -15 0 -25 -6
-23 -6 1 -12 -9 -12 -23 -1 -14 -5 -31 -9 -37 -5 -8 -3 -13 4 -13 8 0 9 -3 0
-13 -6 -8 -8 -17 -4 -20 3 -4 2 -7 -4 -7 -10 0 -8 -58 2 -68 3 -3 -3 -11 -13
-19 -9 -8 -12 -12 -5 -9 8 5 10 -2 7 -21 -7 -43 -13 -55 -23 -48 -5 3 -13 1
-16 -5 -4 -6 -1 -9 7 -8 15 3 21 -49 6 -58 -4 -3 -6 -10 -3 -15 4 -5 1 -9 -4
-9 -6 0 -11 -5 -11 -11 0 -5 4 -8 9 -5 11 7 2 -34 -12 -51 -6 -9 -5 -13 4 -14
10 0 11 -2 1 -6 -6 -2 -10 -9 -7 -14 4 -5 -2 -6 -12 -3 -17 5 -17 5 0 -9 19
-16 24 -32 5 -21 -8 5 -9 2 -5 -10 4 -11 3 -15 -4 -11 -6 4 -8 13 -5 21 3 7
-3 18 -12 23 -10 6 -12 11 -4 11 6 0 12 5 12 11 0 6 -8 8 -17 5 -16 -5 -16 -4
-3 7 18 15 24 37 10 37 -6 0 -10 -6 -10 -12 0 -9 -3 -8 -10 2 -6 9 -6 18 0 24
14 14 12 29 -2 20 -6 -4 -8 -3 -4 4 3 5 0 13 -6 15 -8 3 -6 6 5 6 10 1 15 6
12 11 -4 6 -10 8 -15 5 -5 -3 -11 -1 -15 4 -3 6 4 8 17 6 21 -4 22 -3 5 9 -16
12 -15 14 8 14 13 0 22 -5 19 -9 -3 -5 -7 -21 -10 -35 -3 -18 -1 -23 7 -18 7
4 9 3 6 -4 -10 -15 3 -43 16 -35 5 3 7 1 3 -5 -3 -6 -2 -13 3 -17 14 -8 3 44
-14 68 -10 14 -11 26 -5 38 8 13 4 21 -18 35 -15 10 -33 19 -40 20 -22 4 -24
11 -7 18 9 3 14 2 11 -3 -4 -5 4 -7 15 -4 l21 6 -21 12 c-19 10 -20 13 -8 24
12 10 16 9 20 -1 2 -8 3 -8 3 2 -1 9 -9 14 -21 12 -16 -3 -18 -1 -8 9 10 10
10 16 0 28 -10 12 -9 14 8 7 11 -4 16 -4 12 0 -4 4 1 12 10 19 14 10 13 12 -7
10 -12 -1 -27 -10 -33 -21 -14 -23 -18 -46 -8 -40 4 3 7 -8 7 -25 0 -46 -15
-34 -26 21 -1 3 -8 13 -17 22 -12 14 -13 21 -4 32 8 10 9 16 1 21 -5 3 -10 1
-10 -4 0 -6 -5 -11 -11 -11 -8 0 -8 5 1 15 7 8 16 12 21 9 5 -3 9 -1 9 4 0 19
-14 21 -34 5 -21 -18 -21 -18 -3 3 14 17 15 23 5 27 -8 2 -9 8 -4 13 5 5 11 4
13 -4 3 -6 9 -10 14 -6 5 3 8 2 7 -3 -4 -13 22 -53 34 -53 7 0 7 4 -1 13 -8
10 -7 14 4 14 8 0 12 -4 10 -8 -11 -17 27 -17 42 1 9 10 21 16 26 13 6 -4 8 0
4 10 -4 11 -2 14 9 10 7 -3 14 0 14 6 0 6 -4 11 -10 11 -5 0 -10 5 -10 11 0 8
4 8 14 0 24 -20 43 -3 40 35 -1 18 2 34 7 34 6 0 7 -4 4 -10 -3 -5 -2 -10 4
-10 21 0 20 19 -1 35 -21 15 -21 16 -3 11 16 -5 21 -1 22 15 2 17 -1 18 -13 9
-17 -15 -19 -3 -1 13 26 25 51 42 43 30 -4 -7 -2 -13 3 -13 6 0 11 8 11 18 0
10 -7 19 -15 19 -8 0 -15 -4 -15 -8 0 -15 -38 -30 -45 -19 -4 6 -3 10 2 9 20
-3 34 2 28 11 -4 6 -11 7 -17 4 -7 -4 -8 -2 -4 4 4 6 13 9 21 6 9 -4 21 5 32
23 23 36 47 43 38 11 -7 -23 -7 -23 8 -3 9 11 11 22 6 23 -5 2 -9 8 -9 14 0 6
7 8 15 5 8 -4 17 -2 19 2 3 5 -4 8 -15 7 -11 0 -24 -8 -29 -16 -9 -13 -10 -13
-10 1 0 8 6 21 13 28 10 11 9 14 -1 18 -6 3 -9 9 -6 14 3 6 11 5 20 -2 10 -8
14 -8 14 0 0 6 -4 11 -10 11 -5 0 -10 7 -10 15 0 18 -5 19 -32 4 -15 -8 -19
-8 -13 0 4 7 1 19 -7 28 -8 10 -8 14 -1 10 6 -4 14 -3 18 3 4 6 11 8 16 5 5
-4 12 1 15 9 3 9 9 14 13 11 4 -2 8 2 8 10 0 14 -10 19 -29 16 -3 0 -5 7 -3
17 1 9 8 16 14 15 6 -2 12 2 12 7 1 6 2 16 3 23 1 8 16 11 44 10 38 -1 42 1
30 15 -7 10 -8 14 -4 10 5 -5 16 1 24 13 l14 20 24 -22 c30 -28 31 -14 2 20
-13 14 -16 20 -7 13 16 -12 29 -7 29 10 0 5 -4 7 -9 3 -5 -3 -12 -1 -15 4 -4
5 1 8 9 7 23 -3 29 -14 15 -31 -7 -8 -8 -15 -2 -15 5 0 15 7 22 15 7 8 10 15
6 15 -3 0 -2 10 3 23 5 14 5 31 -1 43 -8 16 -7 17 4 4 7 -9 22 -14 33 -13z
m-254 -321 c-9 -10 -9 -16 -1 -21 8 -5 6 -13 -6 -26 -9 -10 -14 -19 -10 -19 3
0 -1 -11 -10 -25 -17 -26 -34 -33 -34 -14 0 5 5 7 10 4 6 -3 10 -1 10 4 0 19
-5 26 -15 23 -5 -2 -2 5 6 15 9 10 14 25 12 33 -4 13 -3 13 6 0 10 -14 16 -7
12 14 -2 11 21 38 27 31 3 -2 -1 -11 -7 -19z m-433 -148 c21 -21 13 -32 -8
-13 -18 17 -20 17 -14 2 6 -16 16 -21 40 -18 6 1 11 -5 11 -14 0 -8 -4 -12 -8
-9 -4 2 -10 0 -14 -6 -4 -6 -11 -8 -16 -4 -5 3 -7 10 -4 15 4 5 -1 12 -9 15
-9 3 -13 10 -10 15 3 5 -1 9 -8 9 -9 0 -9 3 2 10 19 13 24 12 38 -2z m323
-111 c-10 -9 -11 -8 -5 6 3 10 9 15 12 12 3 -3 0 -11 -7 -18z m6 -37 c-1 -11
-5 -20 -9 -20 -3 0 -6 9 -5 20 1 11 5 20 9 20 3 0 6 -9 5 -20z m-88 -274 c10
-12 8 -13 -8 -9 -12 3 -18 9 -15 14 7 12 10 11 23 -5z m48 -270 c0 -8 -6 -12
-15 -9 -11 5 -11 7 0 14 7 5 13 9 14 9 0 0 1 -6 1 -14z m-6 -33 c13 -17 13
-17 -6 -3 -11 8 -22 16 -24 17 -2 2 0 3 6 3 6 0 17 -8 24 -17z m3 -52 c3 -5
-2 -15 -12 -22 -15 -12 -16 -12 -5 2 7 9 10 19 6 22 -3 4 -4 7 0 7 3 0 8 -4
11 -9z m-194 -87 c0 -3 -7 -1 -15 6 -8 7 -15 17 -15 22 0 5 7 3 15 -6 8 -8 15
-18 15 -22z m200 -48 c0 -2 -7 -7 -16 -10 -8 -3 -12 -2 -9 4 6 10 25 14 25 6z
m-10 -31 c-7 -8 -10 -22 -6 -30 3 -9 2 -13 -4 -10 -14 8 -13 28 2 43 17 17 23
15 8 -3z m-2 -100 c-3 -3 -9 2 -12 12 -6 14 -5 15 5 6 7 -7 10 -15 7 -18z"/>
<path d="M3062 6570 c0 -14 2 -19 5 -12 2 6 2 18 0 25 -3 6 -5 1 -5 -13z"/>
<path d="M3010 6550 c-9 -6 -10 -10 -3 -10 6 0 15 5 18 10 8 12 4 12 -15 0z"/>
<path d="M2940 6540 c0 -5 -7 -7 -15 -4 -8 4 -15 2 -15 -4 0 -14 33 -8 38 6 2
7 1 12 -2 12 -3 0 -6 -4 -6 -10z"/>
<path d="M2977 6526 c-4 -10 -1 -13 8 -9 8 3 12 9 9 14 -7 12 -11 11 -17 -5z"/>
<path d="M3020 6530 c-9 -6 -10 -10 -3 -10 6 0 15 5 18 10 8 12 4 12 -15 0z"/>
<path d="M2833 6513 c4 -3 1 -13 -5 -22 -7 -9 -8 -13 -4 -9 5 4 15 0 23 -10
13 -16 13 -15 5 3 -5 11 -7 26 -5 33 3 6 -1 12 -8 12 -7 0 -9 -3 -6 -7z"/>
<path d="M2879 6498 c-6 -13 -8 -20 -4 -16 5 4 13 3 20 -2 8 -7 12 -5 12 5 0
8 -5 11 -10 8 -6 -4 -8 0 -4 10 9 25 0 21 -14 -5z"/>
<path d="M2770 6490 c-11 -7 -11 -10 -2 -10 7 0 10 -5 6 -12 -4 -7 -3 -8 5 -4
6 4 9 11 6 16 -3 4 1 11 7 13 7 3 9 6 3 6 -5 0 -17 -4 -25 -9z"/>
<path d="M2950 6489 c0 -5 5 -7 10 -4 6 3 10 8 10 11 0 2 -4 4 -10 4 -5 0 -10
-5 -10 -11z"/>
<path d="M2796 6463 c-6 -14 -5 -15 5 -6 7 7 10 15 7 18 -3 3 -9 -2 -12 -12z"/>
<path d="M2840 6425 c-7 -9 -11 -17 -9 -20 3 -2 10 5 17 15 14 24 10 26 -8 5z"/>
<path d="M2750 6419 c0 -5 -4 -7 -10 -4 -5 3 -10 4 -10 1 0 -3 9 -10 19 -15
16 -9 18 -8 14 9 -6 21 -13 27 -13 9z"/>
<path d="M2797 6386 c-4 -10 -15 -13 -31 -10 -15 2 -26 0 -26 -4 0 -13 48 -8
62 6 6 6 9 14 6 17 -3 3 -8 -1 -11 -9z"/>
<path d="M2716 6343 c-6 -14 -5 -15 5 -6 7 7 10 15 7 18 -3 3 -9 -2 -12 -12z"/>
<path d="M2740 6329 c0 -5 5 -7 10 -4 6 3 10 8 10 11 0 2 -4 4 -10 4 -5 0 -10
-5 -10 -11z"/>
<path d="M2583 6236 c-1 -12 1 -15 4 -8 3 6 9 12 14 12 6 0 7 -6 3 -12 -5 -9
-2 -9 9 1 9 7 17 19 17 25 0 6 -5 4 -10 -4 -5 -8 -10 -10 -10 -4 0 20 -26 11
-27 -10z"/>
<path d="M2656 6411 c-3 -5 0 -11 7 -14 8 -3 14 1 14 9 0 16 -13 19 -21 5z"/>
<path d="M2161 5691 c-7 -11 -9 -21 -5 -21 3 0 1 -6 -5 -13 -6 -8 -8 -16 -5
-19 2 -3 -2 -8 -11 -12 -13 -5 -15 -1 -10 17 4 15 3 18 -3 8 -5 -7 -12 -9 -14
-5 -3 5 -3 2 0 -6 3 -8 5 -22 6 -31 0 -9 6 -15 13 -12 7 3 11 8 9 12 -3 4 5
13 16 20 17 11 20 11 15 -1 -3 -7 -8 -22 -12 -33 l-7 -20 13 20 c7 11 17 23
23 27 6 4 7 8 2 8 -5 0 -1 9 9 20 18 20 18 21 -2 42 l-21 20 -11 -21z m28 -35
c-13 -15 -40 -16 -32 -3 8 12 10 18 12 39 0 6 7 3 15 -8 9 -11 11 -23 5 -28z"/>
<path d="M2173 5665 c0 -8 4 -12 9 -9 5 3 6 10 3 15 -9 13 -12 11 -12 -6z"/>
<path d="M2060 5608 c0 -11 12 -10 30 2 12 7 10 9 -8 7 -12 0 -22 -5 -22 -9z"/>
<path d="M2124 5569 c-4 -7 -3 -9 4 -5 5 3 13 0 15 -6 4 -9 6 -10 6 -1 1 17
-16 25 -25 12z"/>
<path d="M2074 5552 c-8 -5 -3 -14 15 -26 26 -20 26 -20 8 0 -9 12 -14 24 -10
27 8 9 1 9 -13 -1z"/>
<path d="M2115 5540 c10 -11 20 -20 23 -20 3 0 -3 9 -13 20 -10 11 -20 20 -23
20 -3 0 3 -9 13 -20z"/>
<path d="M2015 5532 c-2 -3 -2 -8 1 -13 5 -9 34 -1 34 10 0 8 -27 10 -35 3z"/>
<path d="M2096 5483 c-6 -14 -5 -15 5 -6 7 7 10 15 7 18 -3 3 -9 -2 -12 -12z"/>
<path d="M2013 5361 c-10 -16 -9 -19 5 -17 9 2 16 6 15 10 -6 23 -9 24 -20 7z"/>
<path d="M1989 5298 c-5 -16 -4 -46 2 -42 4 2 7 13 6 24 -1 17 -5 26 -8 18z"/>
<path d="M1917 5120 c-19 -16 -37 -27 -41 -23 -6 6 -10 -12 -7 -31 1 -4 -3
-14 -9 -20 -5 -7 -7 -16 -3 -19 10 -10 33 -8 33 3 0 5 -8 7 -17 3 -14 -5 -12
0 6 20 30 33 32 33 28 5 -2 -13 -2 -17 0 -10 3 6 9 12 14 12 6 0 7 -6 3 -12
-4 -7 -3 -10 1 -5 5 4 10 16 12 27 7 48 9 56 17 68 12 20 -1 14 -37 -18z m16
-26 c-3 -8 -12 -13 -19 -10 -7 3 -16 1 -19 -4 -4 -6 -11 -10 -16 -10 -6 0 2
11 18 24 29 26 46 26 36 0z"/>
<path d="M1772 5076 c4 -5 3 -17 -2 -26 -7 -13 -5 -21 8 -31 9 -7 14 -10 10
-5 -4 5 -3 17 2 26 7 13 5 21 -8 31 -9 7 -14 10 -10 5z"/>
<path d="M1930 5021 c0 -7 -4 -9 -10 -6 -5 3 -10 1 -10 -4 0 -6 4 -11 9 -11
13 0 25 20 17 27 -3 4 -6 1 -6 -6z"/>
<path d="M1881 4926 c-9 -11 -9 -16 1 -22 7 -4 10 -4 6 1 -4 4 -3 14 3 22 6 7
9 13 6 13 -2 0 -10 -6 -16 -14z"/>
<path d="M1880 4865 c0 -5 5 -17 10 -25 5 -8 10 -10 10 -5 0 6 -5 17 -10 25
-5 8 -10 11 -10 5z"/>
<path d="M1874 4756 c1 -8 5 -18 8 -22 4 -3 5 1 4 10 -1 8 -5 18 -8 22 -4 3
-5 -1 -4 -10z"/>
<path d="M2006 5431 c-14 -15 -15 -21 -4 -27 7 -4 10 -3 5 1 -4 5 0 17 10 27
9 10 14 18 11 18 -3 0 -13 -9 -22 -19z"/>
<path d="M3686 6888 c3 -5 10 -6 15 -3 13 9 11 12 -6 12 -8 0 -12 -4 -9 -9z"/>
<path d="M3415 6750 c3 -5 8 -10 11 -10 2 0 4 5 4 10 0 6 -5 10 -11 10 -5 0
-7 -4 -4 -10z"/>
<path d="M3195 6701 c-3 -5 -2 -12 3 -15 5 -3 9 1 9 9 0 17 -3 19 -12 6z"/>
<path d="M3093 6675 c0 -8 4 -12 9 -9 5 3 6 10 3 15 -9 13 -12 11 -12 -6z"/>
<path d="M5836 6537 c3 -10 9 -15 12 -12 3 3 0 11 -7 18 -10 9 -11 8 -5 -6z"/>
<path d="M2415 6509 c-3 -4 2 -6 10 -5 21 3 28 13 10 13 -9 0 -18 -4 -20 -8z"/>
<path d="M2510 6491 c0 -6 4 -13 10 -16 6 -3 7 1 4 9 -7 18 -14 21 -14 7z"/>
<path d="M2450 6469 c0 -5 5 -7 10 -4 6 3 10 8 10 11 0 2 -4 4 -10 4 -5 0 -10
-5 -10 -11z"/>
<path d="M2310 6426 c7 -7 13 -7 20 0 6 6 3 10 -10 10 -13 0 -16 -4 -10 -10z"/>
<path d="M2356 6431 c-3 -5 2 -15 12 -22 15 -12 16 -12 5 2 -7 9 -10 19 -6 22
3 4 4 7 0 7 -3 0 -8 -4 -11 -9z"/>
<path d="M2273 6413 c4 -3 1 -13 -6 -22 -11 -14 -10 -14 6 -2 20 15 22 31 5
31 -6 0 -8 -3 -5 -7z"/>
<path d="M2316 6392 c-2 -4 -1 -14 4 -22 7 -11 9 -9 7 8 -1 24 -3 26 -11 14z"/>
<path d="M2340 6396 c0 -2 8 -10 18 -17 15 -13 16 -12 3 4 -13 16 -21 21 -21
13z"/>
<path d="M2270 6345 c6 -7 7 -21 4 -31 -4 -11 -4 -16 1 -12 14 13 14 55 -1 55
-10 0 -11 -4 -4 -12z"/>
<path d="M2213 6296 c0 -8 5 -12 10 -9 6 4 8 0 4 -10 -8 -22 -5 -21 17 5 14
16 15 20 3 15 -8 -3 -19 -1 -24 4 -6 6 -10 4 -10 -5z"/>
<path d="M2145 6270 c-3 -6 1 -7 9 -4 18 7 21 14 7 14 -6 0 -13 -4 -16 -10z"/>
<path d="M1996 6252 c-3 -5 1 -9 9 -9 8 0 12 4 9 9 -3 4 -7 8 -9 8 -2 0 -6 -4
-9 -8z"/>
<path d="M2146 6227 c3 -10 9 -15 12 -12 3 3 0 11 -7 18 -10 9 -11 8 -5 -6z"/>
<path d="M2067 6217 c-3 -8 1 -14 8 -14 7 0 11 6 8 14 -3 7 -6 13 -8 13 -2 0
-5 -6 -8 -13z"/>
<path d="M2095 6205 c0 -13 3 -21 8 -18 4 2 7 10 7 18 0 8 -3 16 -7 18 -5 3
-8 -5 -8 -18z"/>
<path d="M6195 6219 c-4 -6 -5 -12 -2 -15 2 -3 7 2 10 11 7 17 1 20 -8 4z"/>
<path d="M2117 6185 c-8 -19 12 -30 26 -16 9 9 8 11 -6 5 -13 -5 -16 -2 -11
10 3 9 4 16 1 16 -3 0 -7 -7 -10 -15z"/>
<path d="M2055 6169 c3 -15 0 -19 -10 -15 -8 3 -15 1 -15 -5 0 -6 7 -9 16 -7
8 2 14 7 14 12 -1 5 4 12 10 16 8 5 7 9 -3 13 -12 4 -15 0 -12 -14z"/>
<path d="M2093 6165 c4 -5 -5 -17 -20 -27 -16 -10 -23 -18 -18 -18 6 0 21 9
34 19 19 14 21 20 10 26 -8 5 -11 4 -6 0z"/>
<path d="M2030 6111 c0 -6 5 -11 11 -11 5 0 7 -4 4 -10 -3 -5 -1 -10 4 -10 16
0 13 16 -4 30 -10 9 -15 9 -15 1z"/>
<path d="M2075 6109 c-11 -16 -1 -19 13 -3 7 8 8 14 3 14 -5 0 -13 -5 -16 -11z"/>
<path d="M1980 5940 c-13 -8 -12 -11 3 -23 17 -12 17 -14 3 -26 -15 -12 -15
-15 1 -26 15 -11 16 -15 3 -31 -14 -16 -13 -17 5 -7 10 6 20 22 21 35 4 33 8
51 18 68 7 12 6 13 -4 3 -11 -10 -16 -9 -24 2 -8 10 -16 12 -26 5z m29 -51
c-4 -9 -5 -20 -1 -24 4 -5 1 -5 -6 -1 -9 5 -9 13 -2 26 7 13 7 21 0 25 -5 3
-10 11 -10 18 0 6 6 2 14 -8 9 -13 11 -25 5 -36z"/>
<path d="M2023 5701 c0 -11 5 -18 9 -15 4 3 5 11 1 19 -7 21 -12 19 -10 -4z"/>
<path d="M1554 5632 c4 -3 14 -7 22 -8 9 -1 13 0 10 4 -4 3 -14 7 -22 8 -9 1
-13 0 -10 -4z"/>
<path d="M1533 5579 c-2 -23 3 -25 10 -4 4 8 3 16 -1 19 -4 3 -9 -4 -9 -15z"/>
<path d="M1549 5533 c-13 -16 -12 -17 4 -4 9 7 17 15 17 17 0 8 -8 3 -21 -13z"/>
<path d="M1563 5488 c-11 -19 -13 -39 -1 -32 5 3 7 9 4 12 -3 3 -1 11 5 19 6
7 9 13 6 13 -3 0 -9 -6 -14 -12z"/>
<path d="M1534 5427 c-3 -9 -4 -22 -1 -29 3 -7 6 -3 6 10 1 14 5 20 12 17 6
-4 8 -14 4 -24 -5 -13 -4 -14 6 -3 11 10 10 15 -4 29 -15 15 -17 15 -23 0z"/>
<path d="M1573 5386 c-3 -6 -2 -7 2 -3 5 4 14 -2 20 -14 11 -19 13 -19 18 -5
5 12 3 15 -5 10 -7 -5 -9 -2 -6 8 7 17 -19 21 -29 4z"/>
<path d="M1633 5369 c-2 -23 3 -25 10 -4 4 8 3 16 -1 19 -4 3 -9 -4 -9 -15z"/>
<path d="M1548 5373 c6 -2 9 -10 6 -15 -4 -7 -2 -8 5 -4 13 9 5 26 -12 25 -9
0 -8 -2 1 -6z"/>
<path d="M1663 5255 c2 -15 -3 -19 -18 -17 -20 3 -20 3 -1 -11 12 -9 16 -19
12 -28 -4 -8 2 -3 13 11 12 14 19 18 16 9 -3 -9 1 -22 10 -29 9 -8 15 -8 15
-2 0 6 -5 14 -10 17 -6 4 -8 10 -6 13 2 4 -4 19 -14 32 -17 22 -18 22 -17 5z"/>
<path d="M1498 4693 c5 -21 7 -23 10 -9 2 10 0 22 -6 28 -6 6 -7 0 -4 -19z"/>
<path d="M1505 4610 c-3 -6 1 -7 9 -4 18 7 21 14 7 14 -6 0 -13 -4 -16 -10z"/>
<path d="M1535 4601 c-3 -5 0 -13 6 -17 7 -4 9 -3 5 4 -3 5 0 13 6 15 9 4 10
6 1 6 -6 1 -14 -3 -18 -8z"/>
<path d="M1566 4577 c3 -10 9 -15 12 -12 3 3 0 11 -7 18 -10 9 -11 8 -5 -6z"/>
<path d="M1573 4535 c0 -7 6 -11 14 -8 7 3 13 6 13 8 0 2 -6 5 -13 8 -8 3 -14
-1 -14 -8z"/>
<path d="M1631 4494 c0 -11 3 -14 6 -6 3 7 2 16 -1 19 -3 4 -6 -2 -5 -13z"/>
<path d="M1636 4457 c3 -10 9 -15 12 -12 3 3 0 11 -7 18 -10 9 -11 8 -5 -6z"/>
<path d="M1707 4449 c7 -7 15 -10 18 -7 3 3 -2 9 -12 12 -14 6 -15 5 -6 -5z"/>
<path d="M1711 4414 c0 -11 3 -14 6 -6 3 7 2 16 -1 19 -3 4 -6 -2 -5 -13z"/>
<path d="M1755 4420 c3 -5 -7 -16 -22 -25 -15 -9 -19 -13 -8 -9 11 3 25 7 30
7 14 0 17 37 4 37 -6 0 -8 -4 -4 -10z"/>
<path d="M1753 4365 c0 -8 4 -12 9 -9 4 3 8 9 8 15 0 5 -4 9 -8 9 -5 0 -9 -7
-9 -15z"/>
<path d="M1757 4285 c-4 -8 -3 -16 1 -19 4 -3 9 4 9 15 2 23 -3 25 -10 4z"/>
<path d="M1815 3990 c-4 -6 1 -7 11 -3 13 5 15 3 9 -7 -5 -9 -4 -11 4 -6 6 4
9 12 6 17 -8 12 -22 12 -30 -1z"/>
<path d="M1810 3956 c0 -2 7 -7 16 -10 8 -3 12 -2 9 4 -6 10 -25 14 -25 6z"/>
<path d="M1860 3870 c-12 -7 -10 -9 7 -7 12 0 19 5 17 9 -6 10 -6 10 -24 -2z"/>
<path d="M1893 3815 c0 -8 4 -12 9 -9 5 3 6 10 3 15 -9 13 -12 11 -12 -6z"/>
<path d="M1912 3755 c4 -5 2 -15 -5 -24 -10 -14 -10 -14 5 -3 9 8 22 11 28 7
5 -3 10 -4 10 -1 0 3 -10 11 -22 17 -13 6 -20 8 -16 4z"/>
<path d="M6959 3723 c-13 -16 -12 -17 4 -4 9 7 17 15 17 17 0 8 -8 3 -21 -13z"/>
<path d="M1914 3698 l-19 -23 23 19 c21 18 27 26 19 26 -2 0 -12 -10 -23 -22z"/>
<path d="M1952 3688 c1 -15 6 -24 10 -22 4 3 8 -3 9 -13 0 -10 3 -13 5 -7 3 6
-2 24 -11 40 l-15 29 2 -27z"/>
<path d="M2015 3470 c3 -5 8 -10 11 -10 2 0 4 5 4 10 0 6 -5 10 -11 10 -5 0
-7 -4 -4 -10z"/>
<path d="M2055 3390 c3 -5 8 -10 11 -10 2 0 4 5 4 10 0 6 -5 10 -11 10 -5 0
-7 -4 -4 -10z"/>
<path d="M3350 2049 c0 -5 5 -7 10 -4 6 3 10 8 10 11 0 2 -4 4 -10 4 -5 0 -10
-5 -10 -11z"/>
<path d="M4736 1852 c-3 -5 1 -9 9 -9 8 0 12 4 9 9 -3 4 -7 8 -9 8 -2 0 -6 -4
-9 -8z"/>
</g>
</svg>
